<svg xmlns="http://www.w3.org/2000/svg" viewBox="0 0 128 128.38"><defs><style>.cls-1{fill:#e7e2d8;}.cls-2,.cls-5{fill:#999889;}.cls-3{fill:#b4b6ab;}.cls-4{fill:#467082;}.cls-5{stroke:#999889;stroke-miterlimit:10;stroke-width:0.75px;}</style></defs><title>128px</title><g id="Layer_2" data-name="Layer 2"><g id="Layer_1-2" data-name="Layer 1"><rect class="cls-1" width="128" height="126.96"/><path class="cls-2" d="M62.79,1.07c-.2.1-7.94,2.6-17.19,5.5s-16.79,5.6-16.79,6,2.22,1.2,5,1.9l4.93,1.21.3,10,.3,10.1,6,1.7c7,1.9,11.06,3.9,15.48,7.6l3.22,2.7,2.71-2.6c3.52-3.3,10-6.4,16.59-8.1l5.23-1.3.3-10.1.3-10.1L93,14.47a35.83,35.83,0,0,1,5-1c.6,0,1.21-.4,1.21-.8s-4.63-2.3-10.26-4.1-13.87-4.2-18.09-5.5S63,.87,62.79,1.07Zm16.69,6.8c7.64,2.4,13.57,4.6,13.07,4.8A22.31,22.31,0,0,1,88.13,14c-5.33,1.2-12,4.21-18.4,8.61l-5.93,4-3.22-2.5c-4.52-3.4-14.17-8.1-19.7-9.71a30.38,30.38,0,0,1-5.23-1.8c-.8-.7,24.53-8.8,27.85-9C64.6,3.57,71.74,5.47,79.48,7.87Zm-30.36,12a75.42,75.42,0,0,1,10.76,6.5l4,3.2,5.43-4c4.32-3.3,15.38-9.1,17.29-9.1.3,0,.5,4,.5,8.9v8.9l-3.52.6a48.8,48.8,0,0,0-16.28,7.2L64,44.58l-3.32-2.5a48.8,48.8,0,0,0-16.28-7.2l-3.52-.6v-8.9c0-4.9.3-8.9.8-8.9A56.33,56.33,0,0,1,49.12,19.88Z"/><path class="cls-3" d="M94.16,26c0,6.3.4,10.5,1,10.5s1-4.2,1-10.5-.4-10.51-1-10.51S94.16,19.68,94.16,26Z"/><path class="cls-3" d="M92.45,41.48a18.07,18.07,0,0,0-2.31,4.9c0,.7,2.31,1.1,5.53,1.1,3,0,5.53-.3,5.53-.6,0-1-5.23-9.4-5.83-9.4C95,37.48,93.66,39.28,92.45,41.48ZM96,45.28c-2.72.5-3.22-.2-1.81-2.9l1.31-2.2,1.3,2.4C97.88,44.78,97.88,45,96,45.28Z"/><path class="cls-4" d="M36.86,53.48c-1.91,1.9-2,3.3-2,33V117.6l2.51,2.4,2.41,2.5H92.15v-30c0-24.5-.2-30-1.31-30a5.81,5.81,0,0,1-3.22-2c-1.7-1.8-1.7-2.1-.1-4.5.91-1.4,2.32-2.5,3.12-2.5s1.51-.5,1.51-1-9.55-1-26.64-1C40.17,51.48,38.77,51.58,36.86,53.48ZM85,55.58a4.52,4.52,0,0,0,0,4.5l1.11,2.41H63c-19.5,0-23.22-.2-24.52-1.6A5,5,0,0,1,36.86,58a5,5,0,0,1,1.61-2.9c1.3-1.4,5-1.6,24.63-1.6H86.22ZM64.7,64.49H90.14v56H65.31c-21.62,0-25-.2-26.64-1.7s-1.81-3.7-1.81-29.21c0-21.4.3-27.2,1.2-26.3S46.31,64.49,64.7,64.49Z"/><path class="cls-4" d="M40.88,58c0,1.3,2.91,1.5,20.61,1.5S82.1,59.28,82.1,58s-2.92-1.5-20.61-1.5S40.88,56.68,40.88,58Z"/><path class="cls-5" d="M18,70.79c-2.11,2.3-2.21,3-2.21,27.3V123.2l2.61,2.4L21,128l43.33-.1,43.33-.1,2.31-2.7c2.31-2.7,2.31-3,2.31-27,0-23.1-.1-24.5-2.11-27s-2.71-2.6-9-2.6c-4.43,0-6.94.4-6.94,1.1s.7.9,1.51.5c1.3-.5,1.5,3,1.5,27.7V126H30.83V97.69c0-17.2.4-28.1.9-27.7a1.23,1.23,0,0,0,1.61-.5c.4-.6-1.91-1-6.33-1C21.07,68.49,19.77,68.79,18,70.79Zm10.85,27.5V126.1l-3.71-.4c-7.44-.8-7.34-.6-7.34-27.51,0-27.2.1-27.7,7.23-27.7h3.82Zm79.62-26.1c1.61,1.5,1.81,3.6,1.81,25.8,0,27,0,27-7,27.71l-3.52.3-.3-27.81-.2-27.7h3.71C104.92,70.49,107.43,71.19,108.43,72.19Z"/><path class="cls-3" d="M22.78,98c0,4.3.41,7.5,1,7.5s1-3.2,1-7.5-.4-7.5-1-7.5S22.78,93.69,22.78,98Z"/><path class="cls-3" d="M103.21,98c0,6,.3,7.5,1.5,7.5s1.51-1.5,1.51-7.5-.3-7.5-1.51-7.5S103.21,92,103.21,98Z"/></g></g></svg>