<svg xmlns="http://www.w3.org/2000/svg" viewBox="0 0 144 144.38"><defs><style>.cls-1{fill:#e7e2d8;}.cls-2,.cls-5{fill:#999889;}.cls-3{fill:#b4b6ab;}.cls-4{fill:#467082;}.cls-5{stroke:#999889;stroke-miterlimit:10;stroke-width:0.75px;}</style></defs><title>144px</title><g id="Layer_2" data-name="Layer 2"><g id="Layer_1-2" data-name="Layer 1"><rect class="cls-1" width="144" height="142.83"/><path class="cls-2" d="M70.64,1.21c-.22.11-8.93,2.92-19.34,6.18S32.42,13.7,32.42,14.15s2.48,1.35,5.65,2.13l5.54,1.35L44,28.89l.34,11.36,6.79,1.91C59,44.3,63.52,46.55,68.49,50.72l3.62,3,3.06-2.92c4-3.71,11.19-7.2,18.66-9.12l5.88-1.46.34-11.36.34-11.37,4.18-1.24a40.11,40.11,0,0,1,5.66-1.12c.67,0,1.35-.45,1.35-.9s-5.2-2.59-11.53-4.61S84.44,4.92,79.69,3.46,70.87,1,70.64,1.21ZM89.42,8.86c8.59,2.7,15.26,5.17,14.7,5.4a25.23,25.23,0,0,1-5,1.46c-6,1.35-13.46,4.73-20.69,9.68l-6.68,4.5-3.62-2.81C63.07,23.26,52.21,18,46,16.17a35,35,0,0,1-5.88-2C39.2,13.36,67.7,4.24,71.43,4,72.68,4,80.71,6.16,89.42,8.86ZM55.26,22.36a84.83,84.83,0,0,1,12.1,7.31l4.53,3.61L78,28.77c4.87-3.71,17.31-10.24,19.46-10.24.34,0,.56,4.51.56,10v10l-4,.68c-5.54,1.12-14,4.84-18.32,8.1L72,50.15l-3.73-2.81c-4.3-3.26-12.78-7-18.32-8.1l-4-.68v-10c0-5.51.34-10,.9-10A62.44,62.44,0,0,1,55.26,22.36Z"/><path class="cls-3" d="M105.93,29.22c0,7.09.45,11.82,1.13,11.82s1.13-4.73,1.13-11.82-.45-11.81-1.13-11.81S105.93,22.14,105.93,29.22Z"/><path class="cls-3" d="M104,46.67a20.62,20.62,0,0,0-2.61,5.51c0,.79,2.61,1.24,6.23,1.24,3.39,0,6.22-.34,6.22-.68,0-1.12-5.89-10.58-6.56-10.58C106.83,42.16,105.36,44.19,104,46.67ZM108,50.94c-3,.56-3.61-.22-2-3.26l1.47-2.48,1.47,2.7C110.11,50.38,110.11,50.6,108,50.94Z"/><path class="cls-4" d="M41.46,60.17c-2.14,2.14-2.26,3.71-2.26,37.13v35L42,135l2.71,2.81h58.93V104.05c0-27.57-.23-33.75-1.47-33.75-.91,0-2.49-1-3.62-2.25-1.93-2-1.93-2.37-.12-5.07,1-1.57,2.61-2.81,3.51-2.81s1.7-.56,1.7-1.13-10.75-1.12-30-1.12C45.2,57.92,43.61,58,41.46,60.17Zm54.18,2.36a5,5,0,0,0,0,5.07l1.24,2.7h-26c-21.94,0-26.13-.23-27.6-1.8a5.69,5.69,0,0,1-1.81-3.27A5.67,5.67,0,0,1,43.27,62c1.47-1.58,5.66-1.8,27.71-1.8H97Zm-22.85,10H101.4v63H73.47c-24.32,0-28.16-.22-30-1.91s-2-4.17-2-32.86c0-24.08.34-30.61,1.36-29.59S52.1,72.55,72.79,72.55Z"/><path class="cls-4" d="M46,65.23c0,1.47,3.28,1.69,23.18,1.69s23.19-.22,23.19-1.69-3.28-1.69-23.19-1.69S46,63.77,46,65.23Z"/><path class="cls-5" d="M20.2,79.64c-2.37,2.58-2.49,3.37-2.49,30.72V138.6l2.94,2.7,3,2.7,48.74-.11,48.74-.12,2.6-3c2.61-3,2.61-3.38,2.61-30.38,0-26-.12-27.57-2.38-30.39s-3-2.92-10.18-2.92c-5,0-7.8.45-7.8,1.24s.79,1,1.7.56c1.47-.56,1.69,3.37,1.69,31.17v31.73H34.68V109.9c0-19.35.45-31.61,1-31.16a1.39,1.39,0,0,0,1.81-.57c.45-.67-2.15-1.12-7.13-1.12C23.71,77.05,22.24,77.39,20.2,79.64Zm12.22,30.94v31.28l-4.19-.45c-8.37-.9-8.25-.67-8.25-30.94,0-30.61.11-31.17,8.14-31.17h4.3ZM122,81.21c1.81,1.69,2,4.05,2,29,0,30.38,0,30.38-7.91,31.17l-4,.34-.34-31.28-.23-31.17h4.19C118,79.3,120.86,80.09,122,81.21Z"/><path class="cls-3" d="M25.63,110.24c0,4.84.45,8.44,1.13,8.44s1.13-3.6,1.13-8.44-.45-8.44-1.13-8.44S25.63,105.4,25.63,110.24Z"/><path class="cls-3" d="M116.11,110.24c0,6.75.34,8.44,1.69,8.44s1.7-1.69,1.7-8.44-.34-8.44-1.7-8.44S116.11,103.49,116.11,110.24Z"/></g></g></svg>