<svg xmlns="http://www.w3.org/2000/svg" viewBox="0 0 512 512.38"><defs><style>.cls-1{fill:#e7e2d8;}.cls-2,.cls-5{fill:#999889;}.cls-3{fill:#b4b6ab;}.cls-4{fill:#467082;}.cls-5{stroke:#999889;stroke-miterlimit:10;stroke-width:0.75px;}</style></defs><title>512px</title><g id="Layer_2" data-name="Layer 2"><g id="Layer_1-2" data-name="Layer 1"><rect class="cls-1" width="512" height="507.82"/><path class="cls-2" d="M251.17,4.29c-.8.4-31.76,10.4-68.76,22s-67.15,22.41-67.15,24,8.85,4.8,20.11,7.6l19.7,4.8,1.21,40,1.2,40.41,24.13,6.8c28.15,7.6,44.23,15.6,61.92,30.41l12.87,10.8,10.86-10.4c14.07-13.21,39.81-25.61,66.35-32.41l20.91-5.2,1.2-40.41,1.21-40.41,14.88-4.4c8-2,17.29-4,20.11-4,2.41,0,4.82-1.6,4.82-3.2,0-2-18.5-9.2-41-16.41-22.92-6.8-55.49-16.8-72.38-22S252,3.49,251.17,4.29Zm66.76,27.2C348.49,41.1,372.21,49.9,370.2,50.7c-2,1.2-10.05,3.6-17.69,5.2-21.31,4.8-47.85,16.8-73.59,34.41l-23.72,16-12.87-10c-18.1-13.61-56.7-32.41-78.82-38.81-10-2.8-19.3-6-20.91-7.2-3.21-2.8,98.12-35.21,111.39-36C258.41,14.29,287,21.89,317.93,31.49Zm-121.44,48c14.88,7.21,34.18,19.21,43,26l16.09,12.8,21.71-16c17.29-13.2,61.53-36.41,69.17-36.41,1.2,0,2,16,2,35.61v35.61l-14.08,2.4c-19.7,4-49.86,17.2-65.14,28.8l-13.27,10-13.27-10c-15.28-11.6-45.44-24.8-65.14-28.8l-14.08-2.4V101.51c0-19.61,1.21-35.61,3.22-35.61C168.34,65.9,181.61,71.9,196.49,79.5Z"/><path class="cls-3" d="M376.63,103.91c0,25.2,1.61,42,4,42s4-16.81,4-42-1.61-42-4-42S376.63,78.7,376.63,103.91Z"/><path class="cls-3" d="M369.8,165.92c-5.23,8.4-9.25,17.61-9.25,19.61,0,2.8,9.25,4.4,22.12,4.4,12.06,0,22.11-1.2,22.11-2.4,0-4-20.91-37.61-23.32-37.61C379.85,149.92,374.62,157.12,369.8,165.92Zm14.07,15.21c-10.85,2-12.86-.8-7.24-11.61l5.23-8.8,5.23,9.6C391.51,179.13,391.51,179.93,383.87,181.13Z"/><path class="cls-4" d="M147.43,213.93c-7.64,7.61-8,13.21-8,132V470.39l10.05,9.6,9.65,10h209.5V370c0-98-.8-120-5.22-120-3.22,0-8.85-3.6-12.87-8-6.84-7.2-6.84-8.4-.4-18,3.61-5.61,9.24-10,12.46-10s6-2,6-4c0-2.4-38.2-4-106.56-4C160.7,205.93,155.07,206.33,147.43,213.93ZM340,222.34c-3.21,6.4-3.21,11.2,0,18l4.43,9.6H252c-78,0-92.89-.8-98.12-6.4-3.62-3.2-6.43-8.8-6.43-11.6s2.81-8.4,6.43-11.6c5.23-5.61,20.11-6.41,98.52-6.41h92.49Zm-81.23,35.6H360.55V482H261.23c-86.46,0-100.13-.8-106.56-6.8-6.84-6-7.24-14.8-7.24-116.82,0-85.62,1.2-108.83,4.82-105.23S185.23,257.94,258.81,257.94Z"/><path class="cls-4" d="M163.51,231.94c0,5.2,11.66,6,82.44,6s82.43-.8,82.43-6-11.66-6-82.43-6S163.51,226.74,163.51,231.94Z"/><path class="cls-5" d="M71.83,283.15c-8.44,9.2-8.85,12-8.85,109.22V492.8l10.46,9.6L83.89,512l173.32-.4,173.31-.4,9.25-10.8c9.25-10.8,9.25-12,9.25-108,0-92.42-.41-98-8.45-108-7.64-9.6-10.86-10.4-36.19-10.4-17.69,0-27.75,1.6-27.75,4.4,0,2.4,2.82,3.6,6,2,5.22-2,6,12,6,110.82V504H123.3V390.77c0-68.81,1.61-112.42,3.62-110.82,2,1.2,4.83.4,6.43-2s-7.64-4-25.33-4C84.3,274,79.07,275.15,71.83,283.15Zm43.43,110V504.4l-14.88-1.6C70.62,499.6,71,500.4,71,392.77,71,284,71.43,282,100,282h15.28ZM433.74,288.75c6.43,6,7.23,14.4,7.23,103.22,0,108,0,108-28.14,110.83L398.75,504l-1.21-111.23L396.74,282h14.88C419.66,282,429.71,284.75,433.74,288.75Z"/><path class="cls-3" d="M91.13,392c0,17.21,1.61,30,4,30s4-12.8,4-30-1.6-30-4-30S91.13,374.77,91.13,392Z"/><path class="cls-3" d="M412.83,392c0,24,1.2,30,6,30s6-6,6-30-1.21-30-6-30S412.83,368,412.83,392Z"/></g></g></svg>