<svg xmlns="http://www.w3.org/2000/svg" viewBox="0 0 72 72.38"><defs><style>.cls-1{fill:#e7e2d8;}.cls-2,.cls-5{fill:#999889;}.cls-3{fill:#b4b6ab;}.cls-4{fill:#467082;}.cls-5{stroke:#999889;stroke-miterlimit:10;stroke-width:0.75px;}</style></defs><title>72px</title><g id="Layer_2" data-name="Layer 2"><g id="Layer_1-2" data-name="Layer 1"><rect class="cls-1" width="72" height="71.41"/><path class="cls-2" d="M35.32.6c-.11.06-4.47,1.47-9.67,3.1s-9.44,3.15-9.44,3.37,1.24.68,2.83,1.07l2.77.68L22,14.44l.17,5.69,3.39.95a20.39,20.39,0,0,1,8.71,4.28l1.81,1.52,1.52-1.47a22.92,22.92,0,0,1,9.33-4.55l2.94-.73L50,14.44l.17-5.68,2.1-.62a20.27,20.27,0,0,1,2.82-.56c.34,0,.68-.23.68-.45S53.19,5.84,50,4.82s-7.8-2.36-10.17-3.09A23.34,23.34,0,0,0,35.32.6Zm9.39,3.83C49,5.78,52.34,7,52.06,7.13a12.06,12.06,0,0,1-2.49.73A31.83,31.83,0,0,0,39.22,12.7L35.89,15l-1.81-1.41A44.34,44.34,0,0,0,23,8.09a17.52,17.52,0,0,1-2.94-1C19.6,6.68,33.85,2.12,35.72,2A78.37,78.37,0,0,1,44.71,4.43ZM27.63,11.18a41.77,41.77,0,0,1,6.05,3.66l2.26,1.8L39,14.39c2.43-1.86,8.65-5.12,9.72-5.12.17,0,.29,2.25.29,5v5l-2,.34a27.34,27.34,0,0,0-9.16,4.05L36,25.08l-1.87-1.41A27.34,27.34,0,0,0,25,19.62l-2-.34v-5c0-2.75.17-5,.46-5A31.56,31.56,0,0,1,27.63,11.18Z"/><path class="cls-3" d="M53,14.61c0,3.55.23,5.91.57,5.91s.57-2.36.57-5.91-.23-5.91-.57-5.91S53,11.07,53,14.61Z"/><path class="cls-3" d="M52,23.33a10.41,10.41,0,0,0-1.3,2.76c0,.39,1.3.62,3.11.62a7.83,7.83,0,0,0,3.11-.34c0-.56-2.94-5.29-3.28-5.29A6.56,6.56,0,0,0,52,23.33Zm2,2.14c-1.52.28-1.81-.11-1-1.63l.74-1.24L54.43,24C55.06,25.19,55.06,25.3,54,25.47Z"/><path class="cls-4" d="M20.73,30.08c-1.07,1.07-1.13,1.86-1.13,18.57v17.5L21,67.5l1.36,1.41H51.83V52c0-13.79-.11-16.88-.73-16.88A3.27,3.27,0,0,1,49.29,34c-1-1-1-1.18-.06-2.53A2.92,2.92,0,0,1,51,30.08c.45,0,.84-.28.84-.56s-5.37-.56-15-.56C22.6,29,21.81,29,20.73,30.08Zm27.09,1.19a2.54,2.54,0,0,0,0,2.53l.62,1.35h-13c-11,0-13.06-.11-13.79-.9a2.83,2.83,0,0,1-.91-1.63A2.82,2.82,0,0,1,21.64,31c.73-.78,2.82-.9,13.85-.9h13Zm-11.42,5H50.7V67.78h-14c-12.16,0-14.09-.11-15-1s-1-2.08-1-16.42c0-12,.17-15.31.68-14.8S26.05,36.27,36.4,36.27Z"/><path class="cls-4" d="M23,32.62c0,.73,1.64.84,11.6.84s11.59-.11,11.59-.84-1.64-.85-11.59-.85S23,31.88,23,32.62Z"/><path class="cls-5" d="M10.1,39.82c-1.19,1.29-1.24,1.69-1.24,15.36V69.3l1.47,1.35L11.8,72l24.37-.06,24.37,0,1.3-1.52c1.3-1.52,1.3-1.69,1.3-15.19,0-13,0-13.79-1.18-15.19s-1.53-1.47-5.09-1.47c-2.49,0-3.91.23-3.91.62s.4.51.85.28c.74-.28.85,1.69.85,15.59V70.87H17.34V55c0-9.67.23-15.81.51-15.58a.69.69,0,0,0,.9-.28c.23-.34-1.07-.57-3.56-.57C11.85,38.52,11.12,38.69,10.1,39.82Zm6.11,15.47V70.93l-2.09-.22C9.93,70.26,10,70.37,10,55.23c0-15.3,0-15.58,4.07-15.58h2.15ZM61,40.61c.91.84,1,2,1,14.51,0,15.19,0,15.19-4,15.59l-2,.16L55.9,55.23l-.11-15.58h2.09A5.05,5.05,0,0,1,61,40.61Z"/><path class="cls-3" d="M12.82,55.12c0,2.42.22,4.22.56,4.22s.57-1.8.57-4.22-.23-4.22-.57-4.22S12.82,52.7,12.82,55.12Z"/><path class="cls-3" d="M58.05,55.12c0,3.38.17,4.22.85,4.22s.85-.84.85-4.22-.17-4.22-.85-4.22S58.05,51.75,58.05,55.12Z"/></g></g></svg>