<svg xmlns="http://www.w3.org/2000/svg" viewBox="0 0 96 96.38"><defs><style>.cls-1{fill:#e7e2d8;}.cls-2,.cls-5{fill:#999889;}.cls-3{fill:#b4b6ab;}.cls-4{fill:#467082;}.cls-5{stroke:#999889;stroke-miterlimit:10;stroke-width:0.75px;}</style></defs><title>96px</title><g id="Layer_2" data-name="Layer 2"><g id="Layer_1-2" data-name="Layer 1"><rect class="cls-1" width="96" height="95.22"/><path class="cls-2" d="M47.1.8c-.16.08-6,2-12.9,4.13s-12.59,4.2-12.59,4.5,1.66.9,3.77,1.43l3.7.9.22,7.5.23,7.57,4.52,1.28c5.28,1.43,8.3,2.93,11.61,5.7l2.42,2,2-2c2.64-2.48,7.47-4.8,12.44-6.08l3.92-1,.23-7.57.22-7.58,2.79-.82a26.33,26.33,0,0,1,3.77-.75c.46,0,.91-.3.91-.6S70.92,7.78,66.7,6.43,56.29,3.28,53.13,2.3,47.25.65,47.1.8ZM59.61,5.9c5.73,1.81,10.18,3.46,9.8,3.61a17,17,0,0,1-3.31,1,42.37,42.37,0,0,0-13.8,6.45l-4.45,3-2.41-1.87a59,59,0,0,0-14.78-7.28,21.62,21.62,0,0,1-3.92-1.35c-.61-.52,18.39-6.6,20.88-6.75A102.86,102.86,0,0,1,59.61,5.9Zm-22.77,9a57.19,57.19,0,0,1,8.07,4.87l3,2.4,4.08-3c3.24-2.47,11.53-6.82,13-6.82.23,0,.38,3,.38,6.67v6.68l-2.64.45a36.66,36.66,0,0,0-12.21,5.4L48,33.44l-2.49-1.88a36.66,36.66,0,0,0-12.21-5.4l-2.64-.45V19c0-3.67.22-6.67.6-6.67A41.52,41.52,0,0,1,36.84,14.91Z"/><path class="cls-3" d="M70.62,19.48c0,4.73.3,7.88.75,7.88s.76-3.15.76-7.88-.3-7.87-.76-7.87S70.62,14.76,70.62,19.48Z"/><path class="cls-3" d="M69.34,31.11a13.75,13.75,0,0,0-1.74,3.68c0,.52,1.74.82,4.15.82s4.15-.22,4.15-.45c0-.75-3.92-7-4.38-7C71.22,28.11,70.24,29.46,69.34,31.11ZM72,34c-2,.38-2.42-.15-1.36-2.17l1-1.65,1,1.8C73.41,33.59,73.41,33.74,72,34Z"/><path class="cls-4" d="M27.64,40.11c-1.43,1.43-1.51,2.48-1.51,24.76V88.2L28,90l1.81,1.87H69.11V69.37c0-18.38-.15-22.51-1-22.51a4.32,4.32,0,0,1-2.41-1.5C64.44,44,64.44,43.79,65.64,42A3.94,3.94,0,0,1,68,40.11c.6,0,1.13-.37,1.13-.75s-7.16-.75-20-.75C30.13,38.61,29.08,38.69,27.64,40.11Zm36.12,1.58a3.33,3.33,0,0,0,0,3.37l.83,1.8H47.25c-14.63,0-17.42-.15-18.4-1.2a3.76,3.76,0,0,1-1.21-2.17,3.75,3.75,0,0,1,1.21-2.18c1-1.05,3.77-1.2,18.47-1.2H64.66ZM48.53,48.36H67.6v42H49c-16.21,0-18.77-.15-20-1.27s-1.36-2.78-1.36-21.91c0-16,.23-20.4.91-19.73S34.73,48.36,48.53,48.36Z"/><path class="cls-4" d="M30.66,43.49c0,1,2.19,1.12,15.46,1.12s15.45-.15,15.45-1.12-2.19-1.13-15.45-1.13S30.66,42.51,30.66,43.49Z"/><path class="cls-5" d="M13.47,53.09c-1.59,1.73-1.66,2.25-1.66,20.48V92.4l2,1.8,2,1.8,32.5-.08,32.49-.07,1.74-2c1.73-2,1.73-2.25,1.73-20.25,0-17.33-.07-18.38-1.58-20.25s-2-2-6.79-2c-3.32,0-5.2.3-5.2.82s.53.68,1.13.38c1-.38,1.13,2.25,1.13,20.77V94.5H23.12V73.27c0-12.9.3-21.08.68-20.78a.91.91,0,0,0,1.2-.37c.31-.45-1.43-.75-4.75-.75C15.81,51.37,14.83,51.59,13.47,53.09Zm8.14,20.63V94.57l-2.79-.3c-5.58-.6-5.5-.45-5.5-20.62,0-20.41.07-20.78,5.43-20.78h2.86ZM81.33,54.14c1.2,1.13,1.35,2.7,1.35,19.35,0,20.26,0,20.26-5.28,20.78l-2.63.23-.23-20.85-.15-20.78h2.79A6.83,6.83,0,0,1,81.33,54.14Z"/><path class="cls-3" d="M17.09,73.49c0,3.23.3,5.63.75,5.63s.76-2.4.76-5.63-.31-5.62-.76-5.62S17.09,70.27,17.09,73.49Z"/><path class="cls-3" d="M77.4,73.49c0,4.51.23,5.63,1.14,5.63s1.13-1.12,1.13-5.63-.23-5.62-1.13-5.62S77.4,69,77.4,73.49Z"/></g></g></svg>